<?xml version="1.0" encoding="UTF-8"?>
<svg id="Layer_2" data-name="Layer 2" xmlns="http://www.w3.org/2000/svg" viewBox="0 0 363.79 259.85">
  <defs>
    <style>
      .cls-1 {
        fill: #0100fe;
      }
    </style>
  </defs>
  <g id="Layer_1-2" data-name="Layer 1">
    <g>
      <rect y="207.88" width="51.97" height="51.97"/>
      <rect x="51.97" y="155.91" width="51.97" height="51.97"/>
      <rect x="103.94" y="103.94" width="51.97" height="51.97"/>
      <rect x="155.91" y="51.97" width="51.97" height="51.97"/>
      <rect x="0" width="363.79" height="51.97"/>
      <rect x="51.97" width="51.97" height="51.97"/>
      <rect x="103.94" width="51.97" height="51.97"/>
      <rect x="155.91" width="51.97" height="51.97"/>
      <rect x="207.88" width="51.97" height="51.97"/>
      <rect x="259.85" width="51.97" height="51.97"/>
      <rect x="311.82" width="51.97" height="51.97"/>
      <rect class="cls-1" x="103.94" y="207.88" width="51.97" height="51.97"/>
      <rect class="cls-1" x="155.91" y="155.91" width="51.97" height="51.97"/>
      <rect class="cls-1" x="207.88" y="103.94" width="51.97" height="51.97"/>
      <rect class="cls-1" x="259.85" y="51.97" width="103.94" height="51.97"/>
      <rect class="cls-1" x="311.82" y="51.97" width="51.97" height="207.88"/>
      <rect class="cls-1" x="311.82" y="103.94" width="51.97" height="51.97"/>
      <rect class="cls-1" x="311.82" y="155.91" width="51.97" height="51.97"/>
      <rect class="cls-1" x="259.85" y="155.91" width="103.94" height="51.97"/>
      <rect class="cls-1" x="311.82" y="207.88" width="51.97" height="51.97"/>
    </g>
  </g>
</svg>